<?xml version="1.0" encoding="utf-8"?>
<!-- Generator: Adobe Illustrator 21.1.0, SVG Export Plug-In . SVG Version: 6.00 Build 0)  -->
<svg version="1.1" id="Слой_1" xmlns="http://www.w3.org/2000/svg" xmlns:xlink="http://www.w3.org/1999/xlink" x="0px" y="0px"
	 viewBox="0 0 825.9 716.5" style="enable-background:new 0 0 825.9 716.5;" xml:space="preserve">
<title>Asset 3</title>
<g id="Layer_2">
	<g id="Слой_1_копия_">
		<path d="M780.4,327.8c-6.2,0-12.9-0.5-19.5,0.1c-8.8,0.9-12.1-2.9-12.9-11.3c-2.8-30.1-10.9-58.9-22.5-86.8
			C697,161.1,650.7,107.5,587.2,68.6c-36.4-22.5-77-37.4-119.4-44c-54.8-8.5-109.2-4.9-162.2,13.2c-57.2,19.6-105.9,52-146,97.1
			c-27.4,30.9-48.8,66.6-63.2,105.3c-0.4,1.1-0.7,2.3-1.2,3.3c-2.6,5.7-5.8,10.7-13.3,8.4c-6-1.8-8.4-8.2-5.7-15.5
			c2.9-8,6-16,9.5-23.7c30.2-66.7,76-120,138.3-158.6C302.2,6,386.9-10.1,477.4,6.1c88.3,15.9,160.1,60,216.2,129.4
			c37.6,46.6,61.5,99.9,71.8,159.2c0.5,2.9,1.2,5.8,1.8,8.6c0.3,1.1,0.8,2.2,1.6,4.4c15,0,30.2-0.1,45.5,0.1c3.9,0.1,7.7,1.3,11.6,2
			c-2,3.6-3.3,7.9-6.1,10.7c-28.5,29-57.2,57.8-86,86.5c-2,2.1-4.4,3.9-7,6.2c-2.4-1.7-4.7-3.6-6.9-5.6
			c-29.5-29.5-59-59.2-88.5-88.8c-2.2-2.3-3.2-5.8-4.8-8.7c3.3-0.8,6.5-2.2,9.8-2.2c14.7-0.3,29.3-0.1,46.1-0.1
			c-3.2-12.8-4.9-24.4-8.8-35.3c-32.7-91-95-151-188-178.7c-21.5-6.4-43.8-9.5-66.2-9.4c-10.5,0-16.7-4.2-16.7-10.6
			c0-6.8,5.7-10.6,16.6-10.2c83.8,3.1,154.5,35,211.5,96.8c29.2,31.4,50.8,69,63,110.1c4.9,16.3,7.2,33.3,10.7,50
			c1.3,5.9-2,7.2-6.9,7.2c-8.7-0.1-17.4,0-27.1,0l55.4,55L780.4,327.8z"/>
		<path d="M57.8,408.9c-16.5,0-32.4,0.1-48.3-0.1c-3.2,0-6.3-1.6-9.5-2.5c1.6-3,2.5-6.5,4.8-8.8c29.2-29.5,58.5-59,87.8-88.3
			c1.8-1.9,3.9-3.5,6.9-6.1c5.8,5.5,11.5,10.7,17,16.2c25.8,25.8,51.5,51.6,77.2,77.5c1.3,1.2,2.5,2.5,3.6,3.9c1,1.6,2.6,4.5,2,5.2
			c-1.5,1.6-3.6,2.6-5.8,2.8c-12.4,0.3-24.8,0.1-37.1,0.2h-12.8c3.2,12.9,5.1,24.6,9,35.8c20.7,60.5,57.8,108.7,111.3,143.8
			c30.6,20.1,64,33.7,100.2,39.7c13.6,2.2,27.5,2.7,41.2,4c2.4,0.2,4.8,0,7.1,0.4c6.1,1,11,4.1,10.6,10.8s-5.2,10.2-11.6,9.5
			c-21.6-2.2-43.7-3-64.8-7.7c-55.3-12.3-103-39.4-142.9-79.7c-42.2-42.6-68.5-93.7-80.3-152.4c-1.1-5.5-1.3-11.1-2.2-16.6
			s1.6-7.6,6.8-7.5c4.4,0,8.8,0,13.3,0h13c-18.7-18.9-36.9-37.3-55-55.6C82,351.2,64.1,369.6,45.2,389c5.9,0,12.1,0,18.3,0
			c12.9,0,13.2,0,14.7,12.9c4.8,42.4,18.4,82,38.8,119.2c29.4,53.5,70.5,95.8,122.8,127.5c78.8,47.4,173.6,60.4,262.2,36
			c62.2-17.3,115.3-49.6,159.2-96.9c30.6-32.9,53.4-70.8,69.3-112.8c1.2-3.2,2.9-7.1,5.5-8.6s7.7-1.9,10.4-0.4c5.3,2.9,6,8.6,3.6,14
			c-8.6,19-16,38.7-26.3,56.7c-39,68-94.8,118-166.3,149.8c-52.8,23.5-108.3,33-166.1,29.5c-72.7-4.5-137.8-28.7-195.5-72.8
			C128.1,591.1,84.5,523.3,64.4,440.5C61.9,430.3,60,419.9,57.8,408.9z"/>
		<path d="M467.8,262.2H313v-47.5h216.4v40.9l-139,267h-60.7L467.8,262.2z"/>
	</g>
</g>
</svg>
