<svg xmlns="http://www.w3.org/2000/svg" viewBox="0 0 1031 357"><defs><style>.cls-1,.cls-2{fill:#fff;}.cls-2{fill-rule:evenodd;}</style></defs><title>Ресурс 1</title><g id="Слой_2" data-name="Слой 2"><g id="white"><path class="cls-1" d="M962.49,357h-890c-27.14,0-44.36-5.07-55.83-16.43S0,312,0,284.88V68.9C0,42,5.22,25.25,16.92,14.59,28.15,4.36,44.77,0,72.51,0h890c27.45,0,43.57,4.45,53.89,14.88S1031,41,1031,68.9v216c0,27.74-4.3,44.31-14.39,55.39C1006.08,351.84,989.39,357,962.49,357ZM72.51,16C27.62,16,16,26.88,16,68.9v216c0,22.17,3.79,36.25,11.94,44.32S50.23,341,72.51,341h890c42.2,0,52.51-11,52.51-56.12V68.9c0-43.51-9.32-52.9-52.51-52.9Z"/><path class="cls-2" d="M272,213.47c-4.81,10.65-7.11,15.41-13.29,24.82-8.64,13.15-20.81,29.52-35.88,29.65-13.4.12-16.84-8.72-35-8.62s-22,8.78-35.39,8.65c-15.08-.14-26.61-14.92-35.25-28.07C93,203.16,90.53,160,105.42,137.09c10.58-16.3,27.28-25.84,43-25.84,16,0,26,8.77,39.24,8.77,12.82,0,20.63-8.78,39.11-8.78,14,0,28.77,7.6,39.31,20.76-34.55,18.93-28.94,68.28,6,81.47"/><path class="cls-2" d="M212.73,96.56c6.71-8.62,11.81-20.79,10-33.23-11,.76-23.8,7.73-31.29,16.83-6.8,8.26-12.41,20.51-10.22,32.41,12,.37,24.36-6.78,31.55-16"/><path class="cls-2" d="M938.68,226H888c.2,7,2.65,13.14,7.37,17.1,4.27,3.56,9.79,5.3,16.58,5.3a55.25,55.25,0,0,0,20.51-3.65l2.66,11.75c-7.17,3.16-15.7,4.68-25.53,4.68q-17.65,0-27.76-10.39t-10.12-27.93c0-11.5,3.15-21,9.39-28.68Q891,182,907.67,182q16.49,0,24.89,12.19c4.47,6.49,6.73,14.56,6.73,24.06A42,42,0,0,1,938.68,226ZM866,198.57a23.52,23.52,0,0,0-5.15-.43c-5.95,0-10.45,2.24-13.7,6.72-2.82,4-4.15,8.91-4.15,15V260H826V207.63c0-8.71,0-16.63-.33-23.63h14.71l.63,14h.46a25.16,25.16,0,0,1,8.45-11.89,19.71,19.71,0,0,1,12.05-4,21.4,21.4,0,0,1,4,.35Zm-60.51,51.37Q795,261.49,777.63,261.5q-16.78,0-26.73-11.11c-6.62-7.39-9.92-16.76-9.92-28q0-17.67,10.24-28.94c6.84-7.54,16-11.25,27.61-11.25,11.21,0,20.17,3.67,27,11.11,6.45,7.16,9.69,16.48,9.69,27.84C815.48,232.84,812.16,242.4,805.49,249.94ZM736,196H717v37.35c0,9.38,3.55,14,10.13,14a31.8,31.8,0,0,0,7.63-.74l.54,12.8a38,38,0,0,1-13.12,1.89c-6.64,0-11.84-2-15.58-6.11s-5.6-10.89-5.6-20.49V196H690V184h11V169.78l16-5V184h19Zm-59.46,56.1q-10.35,9.25-28.74,9.23-17.06,0-27.34-6.56l3.93-14.08a47.19,47.19,0,0,0,24.38,6.58c6.39,0,11.34-1.45,14.89-4.3A14.08,14.08,0,0,0,669,231.4a14.77,14.77,0,0,0-4.37-10.76c-2.95-2.92-7.76-5.61-14.55-8.14q-27.68-10.3-27.69-30.19a26.61,26.61,0,0,1,9.76-21.3q9.78-8.28,25.92-8.29,14.39,0,24,5l-4.27,13.78a41.81,41.81,0,0,0-20.24-4.86c-6,0-10.63,1.52-14,4.37a12.67,12.67,0,0,0-4.22,9.57,13.06,13.06,0,0,0,4.85,10.36q4.24,3.74,15.32,8.11c9.11,3.63,15.76,7.93,20.06,12.85s6.42,11,6.42,18.29C685.9,239.17,682.76,246.49,676.54,252.1Zm-96.69-.59a30.66,30.66,0,0,1-23.3,10c-10.07,0-17.55-3.59-21.55-10.82V291H518V208.7c0-8.13-.42-16.7-.83-24.7H532l1,12h.29c5.67-9,14.2-13.7,25.68-13.7a28.11,28.11,0,0,1,22.46,10.57q9,10.62,9,28C590.42,233.82,586.9,244,579.85,251.51Zm-83.57,0a31.11,31.11,0,0,1-23.5,10c-10.1,0-16.78-3.59-21.78-10.82V291H434V208.7c0-8.13,0-16.7-.42-24.7h14.87l.93,12h.3c5.66-9,14.21-13.7,25.7-13.7,9,0,16.44,3.46,22.48,10.57s9,16.41,9,28C506.84,233.82,503.33,244,496.28,251.51ZM405.88,260,396,229H361.74l-9.4,31H334.83l33.93-106h21l34.14,106Zm500.54-66.29c-5.52,0-10,2.48-13.46,7A25.85,25.85,0,0,0,888,214h35.21a23.53,23.53,0,0,0-3.27-13.1C917,196.22,912.46,193.71,906.42,193.71ZM378.8,168h-.3c-1.06,5-2.71,11.38-5,20.16L364.71,216H393l-8.88-27.84C383.18,185.33,381.39,179,378.8,168Zm174.67,27.59a17.48,17.48,0,0,0-11.34,4.13,19.27,19.27,0,0,0-6.52,10.92,20.89,20.89,0,0,0-.62,5.18v12.66c0,5.54,1.52,10.23,4.93,14a16.8,16.8,0,0,0,13.13,5.69c6.4,0,11.31-2.44,14.86-7.35s5.32-11.37,5.32-19.43c0-7.39-1.69-13.5-5-18.29A17.48,17.48,0,0,0,553.47,195.59Zm224.75-1.05c-6.76,0-11.93,3-15.46,9-3.06,5-4.56,11-4.56,18.23,0,7,1.5,13,4.56,18q5.42,9.05,15.34,9c6.43,0,11.51-3,15.14-9.22A33.5,33.5,0,0,0,798,221.52c0-7-1.51-13-4.52-17.94C789.85,197.54,784.8,194.54,778.22,194.54Zm-308.35,1.05a17.51,17.51,0,0,0-11.33,4.13,19.51,19.51,0,0,0-6.71,10.92,23.19,23.19,0,0,0-.83,5.18v12.66a20.29,20.29,0,0,0,5.14,14,17,17,0,0,0,13.25,5.69c6.35,0,11.36-2.44,14.9-7.35s5.31-11.37,5.31-19.43c0-7.39-1.64-13.5-5-18.29A17.41,17.41,0,0,0,469.87,195.59Z"/><path class="cls-1" d="M360.39,113.22l-4.94,16.27H344.63L363,72.07h13.38l18.66,57.43H383.82l-5.2-16.27Zm16.44-7.92-4.52-14.14c-1.11-3.49-2-7.41-2.9-10.74h-.17c-.85,3.32-1.7,7.33-2.73,10.74l-4.43,14.14Z"/><path class="cls-1" d="M407,88l6.73,21c1.19,3.66,2,7,2.81,10.39h.26c.77-3.41,1.7-6.65,2.81-10.39l6.56-21h11.08L421.39,129.5H411.08L395.66,88Z"/><path class="cls-1" d="M466.46,129.5l-.68-4.6h-.26a15.41,15.41,0,0,1-12.27,5.54c-8.35,0-13-6-13-12.35,0-10.48,9.29-15.76,24.62-15.68v-.68c0-2.73-1.11-7.24-8.44-7.24a22,22,0,0,0-11.16,3.07l-2-6.82a29.88,29.88,0,0,1,15-3.66c13.29,0,17.13,8.44,17.13,17.47v15a66.49,66.49,0,0,0,.6,10Zm-1.36-20.28c-7.41-.17-14.48,1.45-14.48,7.75,0,4.09,2.64,6,6,6a8.49,8.49,0,0,0,8.18-5.71,7.54,7.54,0,0,0,.34-2.3Z"/><path class="cls-1" d="M497.55,76.42c0,3.15-2.3,5.62-6,5.62a5.51,5.51,0,0,1-5.79-5.62,5.88,5.88,0,0,1,11.76,0ZM486.39,129.5V88H497V129.5Z"/><path class="cls-1" d="M508.2,69h10.56V129.5H508.2Z"/><path class="cls-1" d="M553.44,129.5l-.68-4.6h-.26a15.41,15.41,0,0,1-12.27,5.54c-8.35,0-13-6-13-12.35,0-10.48,9.29-15.76,24.62-15.68v-.68c0-2.73-1.11-7.24-8.44-7.24a22,22,0,0,0-11.16,3.07l-2-6.82a29.88,29.88,0,0,1,15-3.66c13.29,0,17.13,8.44,17.13,17.47v15a66.49,66.49,0,0,0,.6,10Zm-1.36-20.28c-7.41-.17-14.48,1.45-14.48,7.75,0,4.09,2.64,6,6,6a8.49,8.49,0,0,0,8.18-5.71,7.54,7.54,0,0,0,.34-2.3Z"/><path class="cls-1" d="M573,129.5c.17-2.81.34-7.41.34-11.67V69h10.48V93.71H584c2.56-4,7.07-6.65,13.29-6.65,10.14,0,17.38,8.44,17.3,21,0,14.91-9.46,22.32-18.83,22.32-5.37,0-10.14-2-13.12-7.16h-.17L582,129.5Zm10.82-17.13a11.55,11.55,0,0,0,.26,2.47,9.67,9.67,0,0,0,9.29,7.33c6.56,0,10.57-5.28,10.57-13.63,0-7.33-3.49-13.29-10.48-13.29a9.81,9.81,0,0,0-9.29,7.67,12.54,12.54,0,0,0-.34,2.73Z"/><path class="cls-1" d="M623.22,69h10.56V129.5H623.22Z"/><path class="cls-1" d="M652.53,111.69c.26,7.5,6.13,10.73,12.78,10.73a31.18,31.18,0,0,0,11.5-1.87l1.53,7.24a39.06,39.06,0,0,1-14.48,2.56c-13.46,0-21.39-8.26-21.39-21,0-11.5,7-22.32,20.28-22.32,13.46,0,17.89,11.08,17.89,20.19a25.82,25.82,0,0,1-.34,4.43Zm18.23-7.33c.09-3.83-1.62-10.14-8.61-10.14-6.48,0-9.2,5.88-9.63,10.14Z"/><path class="cls-1" d="M746.16,108.37c0,15.25-10.74,22.07-21.3,22.07-11.76,0-20.79-8.09-20.79-21.39,0-13.63,8.95-22,21.47-22C737.89,87.07,746.16,95.76,746.16,108.37Zm-31.27.43c0,8,3.92,14.06,10.31,14.06,6,0,10.14-5.88,10.14-14.23,0-6.48-2.9-13.89-10.05-13.89C717.87,94.74,714.89,101.89,714.89,108.79Z"/><path class="cls-1" d="M754.76,100.36c0-4.77-.09-8.78-.34-12.35h9.2l.51,6.22h.26a15,15,0,0,1,13.21-7.16c7.24,0,14.74,4.69,14.74,17.81V129.5H781.85V106.07c0-6-2.22-10.48-7.92-10.48a8.79,8.79,0,0,0-8.18,6.13,10.68,10.68,0,0,0-.43,3.41V129.5H754.76Z"/><path class="cls-1" d="M833.14,76.16V88h10v7.84h-10v18.32c0,5,1.36,7.67,5.37,7.67a15.46,15.46,0,0,0,4.09-.51l.17,8a23,23,0,0,1-7.58,1c-3.83,0-7.07-1.28-9-3.41-2.22-2.39-3.24-6.13-3.24-11.59V95.84h-6V88h6V78.63Z"/><path class="cls-1" d="M851,69H861.6V93.71h.17a14.06,14.06,0,0,1,5.2-4.77,14.22,14.22,0,0,1,7.16-1.87c7.07,0,14.48,4.69,14.48,18V129.5H878.13V106.24c0-6-2.22-10.57-8-10.57a8.55,8.55,0,0,0-8.09,5.88,8.83,8.83,0,0,0-.43,3.15V129.5H851Z"/><path class="cls-1" d="M907.18,111.69c.26,7.5,6.13,10.73,12.78,10.73a31.18,31.18,0,0,0,11.5-1.87l1.53,7.24a39.06,39.06,0,0,1-14.48,2.56c-13.46,0-21.39-8.26-21.39-21,0-11.5,7-22.32,20.28-22.32,13.46,0,17.89,11.08,17.89,20.19a25.82,25.82,0,0,1-.34,4.43Zm18.23-7.33c.09-3.83-1.62-10.14-8.61-10.14-6.48,0-9.2,5.88-9.63,10.14Z"/></g></g></svg>