<svg xmlns="http://www.w3.org/2000/svg" viewBox="0 0 1015 341"><defs><style>.cls-1{fill:#fff;}</style></defs><title>Ресурс 2</title><g id="Слой_2" data-name="Слой 2"><g id="white"><path class="cls-1" d="M661.74,193.07a17.76,17.76,0,0,0-11.89,4.33,21.48,21.48,0,0,0-6.93,11.6h38.19c-.27-4-2-7.39-5.18-10.8S668,193.07,661.74,193.07Z"/><path class="cls-1" d="M494.22,193.05a20.43,20.43,0,0,0-15.13,6.52q-6.4,6.53-6.39,17.28t6.39,17.27a20.79,20.79,0,0,0,30.25,0q6.39-6.52,6.39-17.27t-6.39-17.28A20.46,20.46,0,0,0,494.22,193.05Z"/><path class="cls-1" d="M565.61,193.05a19.65,19.65,0,0,0-14.79,6.52q-6.18,6.53-6.19,17.28t6.19,17.27a20.17,20.17,0,0,0,29.65.07q6.11-6.45,6.12-17.34t-6.12-17.34A19.7,19.7,0,0,0,565.61,193.05Z"/><path class="cls-1" d="M422.28,193.05a20.44,20.44,0,0,0-15.13,6.52q-6.39,6.53-6.39,17.28t6.39,17.27a20.79,20.79,0,0,0,30.25,0q6.39-6.52,6.39-17.27t-6.39-17.28A20.45,20.45,0,0,0,422.28,193.05Z"/><path class="cls-1" d="M763.66,165H743v34h20.66a16,16,0,0,0,12.5-5.26,17,17,0,0,0,4.71-11.58,17.36,17.36,0,0,0-4.71-11.74A16.12,16.12,0,0,0,763.66,165Z"/><path class="cls-1" d="M523.29,115.43a15.86,15.86,0,0,0,5.13,3.37,17,17,0,0,0,12.62,0,15.88,15.88,0,0,0,5.13-3.37,15.35,15.35,0,0,0,3.44-5.23,19,19,0,0,0,0-13.56,15.38,15.38,0,0,0-3.44-5.23A15.91,15.91,0,0,0,541,88a17,17,0,0,0-12.62,0,15.89,15.89,0,0,0-5.13,3.37,15.35,15.35,0,0,0-3.44,5.23,19,19,0,0,0,0,13.56A15.32,15.32,0,0,0,523.29,115.43Z"/><path class="cls-1" d="M952.49,0h-890C14.65,0,0,15,0,62.9v216C0,326.74,14.65,341,62.51,341h890c47.86,0,62.51-14.26,62.51-62.12V62.9C1015,15,1000.35,0,952.49,0ZM511.41,93.53a24.43,24.43,0,0,1,13.29-13.4,26.63,26.63,0,0,1,20,0A24.43,24.43,0,0,1,558,93.53a26.37,26.37,0,0,1,0,19.77,24.42,24.42,0,0,1-13.29,13.4,26.64,26.64,0,0,1-20,0,24.42,24.42,0,0,1-13.29-13.4,26.37,26.37,0,0,1,0-19.77ZM454.56,79.26h36.1V87.9h-13.5v39.68h-9.11V87.9h-13.5Zm-16.19,0h9.11v48.32h-9.11Zm-58.64,0h36.1V87.9h-13.5v39.68h-9.11V87.9h-13.5Zm-36.37,0H374V87.9H352.46V99.1h19.37v8.64H352.46v11.2H374v8.64H343.35ZM203.54,140.51l-24.62,24.66L86.37,73.1ZM75,267.34V76.57a5.73,5.73,0,0,1,.71-2.78l97.55,97L75.25,269A5.84,5.84,0,0,1,75,267.34Zm8.68,5a6,6,0,0,1-.83.39l96.1-96.27,26.15,26ZM249.46,177l-37.18,21.39-27.69-27.55,26.13-26.17,38.74,22.29A5.79,5.79,0,0,1,249.46,177Zm38.28-83.64a25.27,25.27,0,0,1,5.47-8,24.7,24.7,0,0,1,8.1-5.26,27.59,27.59,0,0,1,20.41.13,23.52,23.52,0,0,1,7.93,5.6l-6.28,6.14A17.16,17.16,0,0,0,304.88,88a15.73,15.73,0,0,0-5.2,3.34,15.94,15.94,0,0,0-3.54,5.23,18.49,18.49,0,0,0,0,13.7,15.66,15.66,0,0,0,3.58,5.23,16.07,16.07,0,0,0,5.23,3.34,18.57,18.57,0,0,0,12.86.07,15.27,15.27,0,0,0,4.56-2.87,10.94,10.94,0,0,0,2.33-3.07,17.46,17.46,0,0,0,1.52-4.15H311v-7.76h23.69a16,16,0,0,1,.34,2,19.78,19.78,0,0,1,.13,2.29,26.76,26.76,0,0,1-1.42,8.77,20.32,20.32,0,0,1-4.45,7.36,22.35,22.35,0,0,1-7.76,5.33,26.58,26.58,0,0,1-10.32,1.89,26.14,26.14,0,0,1-9.92-1.89,24.68,24.68,0,0,1-8.1-5.26,25.25,25.25,0,0,1-5.47-8,26.15,26.15,0,0,1,0-20.18Zm83.58,144.29Q357.74,251.87,336,251.91q-20.84,0-35.43-14.44t-14.59-35.83q0-21.37,14.59-35.83A48.45,48.45,0,0,1,336,151.37a49.66,49.66,0,0,1,19.77,4,39.75,39.75,0,0,1,15.06,10.76l-8.47,8.48Q352.77,163.2,336,163.2a36.57,36.57,0,0,0-26.28,10.69q-11.09,10.69-11.1,27.76t11.1,27.77A36.59,36.59,0,0,0,336,240.11c10.76,0,19.72-3.51,26.89-10.69,4.66-4.66,7.35-11.42,8.06-19.42H336V198h46.61a47.25,47.25,0,0,1,.67,7.41C383.29,218.85,379.3,229.64,371.32,237.61Zm75.3,4.31q-9.55,10-24.34,10t-24.33-10q-9.55-10-9.55-25.08t9.55-25.07q9.55-10,24.33-10t24.34,10q9.55,10,9.54,25.07T446.62,241.92Zm71.93,0q-9.55,10-24.33,10t-24.34-10q-9.55-10-9.55-25.08t9.55-25.07q9.55-10,24.34-10t24.33,10q9.55,10,9.54,25.07T518.55,241.92Zm79.45,4.5c0,11.29-3.06,19.88-9.6,25.75s-14.31,8.8-23.72,8.8q-11.71,0-19.1-5.85A34.31,34.31,0,0,1,535,261.75l11.3-4.7a18.5,18.5,0,0,0,6.93,9,19.14,19.14,0,0,0,11.5,3.63c6.81,0,12.37-2,16.27-6.12S587,254,587,247v-6h-1a27.09,27.09,0,0,1-22.45,11c-8.52,0-15.87-3.41-22.05-10.13s-9.28-15.08-9.28-25,3.09-18.3,9.28-25,13.54-10.09,22.05-10.09A26.86,26.86,0,0,1,586,193h1v-9h11Zm9-118.85h-9.58L576.9,93.36h-.54l.54,9.31v24.9h-9V79.26h10.6L598,111.65h.54l-.54-9.31V79.26h9ZM622,250H610V154h12Zm72.15-31h-52c.35,7,2.57,11.94,6.65,15.79a20.23,20.23,0,0,0,14.32,5.82q13.31,0,18-11.28l11,4.58a29.53,29.53,0,0,1-10.62,12.85q-7.39,5.17-18.15,5.18-14.93,0-24.27-10t-9.35-25.14a36.28,36.28,0,0,1,9.08-24.75A29.47,29.47,0,0,1,662,181.76q14.66,0,23.46,9.55c5.87,6.36,8.81,14.81,8.81,25.48Zm90.42-16.18A30.46,30.46,0,0,1,763.39,211H743v39H731V154h32.39a30.23,30.23,0,0,1,21.18,7.89,26.31,26.31,0,0,1,8.94,20.38A26.62,26.62,0,0,1,784.57,202.82ZM814,250H802V154h12Zm66,0H868v-9h-.54a25.3,25.3,0,0,1-21.65,11.12A26.07,26.07,0,0,1,828.27,246c-4.71-4-7.06-9.41-7.06-16,0-7.17,2.77-12.82,8.34-16.9s12.41-6.13,20.57-6.13c7.26,0,12.88,1.33,17.88,4V209a14.73,14.73,0,0,0-5-11.63,17.91,17.91,0,0,0-12.24-4.36A19,19,0,0,0,841,195.6a13.19,13.19,0,0,0-6,7l-11.3-4.84q2.29-5.91,9-11t17.75-5c8.42,0,15.5,2.46,21.06,7.39S880,201,880,210Zm26.73,29H894l15.33-33.25L882.12,184h13.44l19.63,47h.27l19.09-47H948Z"/><path class="cls-1" d="M838.68,221a11.73,11.73,0,0,0-4.57,9.15,8.79,8.79,0,0,0,4.17,7.66,16.64,16.64,0,0,0,9.54,2.83,20.18,20.18,0,0,0,13.92-5.72A17.71,17.71,0,0,0,868,221.42q-5.23-4.3-15.72-4.3Q843.25,217.12,838.68,221Z"/></g></g></svg>