<svg xmlns="http://www.w3.org/2000/svg" viewBox="0 0 367.27 589.15"><defs><style>.cls-1{isolation:isolate;}.cls-15,.cls-2{fill:#e6e6e6;}.cls-3{fill:#f2f2f2;}.cls-14,.cls-4{fill:#ccc;}.cls-5{fill:#ef3543;}.cls-6{fill:#f44e63;}.cls-7{fill:#939995;}.cls-8{fill:#a8adaa;}.cls-9{fill:#b8bcc1;}.cls-10{fill:#cdcfd3;}.cls-11{fill:#999;}.cls-12{fill:gray;}.cls-13{fill:#b3b3b3;}.cls-14,.cls-15{mix-blend-mode:multiply;}</style></defs><title>Rocket_3</title><g class="cls-1"><g id="Layer_2" data-name="Layer 2"><g id="Layer_1-2" data-name="Layer 1"><path class="cls-2" d="M119.18,272.29c-12.24,84.55-66.23,129.77-94,152.81S4,485.94,4,485.94l-4,0,.12,18.48,138.29,35.21L136.1,170.11l0-4.4c-3.85,22-16.9,106.58-16.9,106.58"/><path class="cls-3" d="M245.32,271.5c13.3,84.39,67.85,128.92,95.92,151.62s21.93,60.57,21.93,60.57l4,0,.12,18.48L229.43,539.09l-2.31-369.55,0-4.4c4.12,22,18.22,106.36,18.22,106.36"/><path class="cls-4" d="M156.72,35c-.41,1.25-.82,2.53-1.24,3.87-25,79.94-21.32,164.38-21.32,164.38l2.14,342.57,47.88-.3L181,34.86Z"/><path class="cls-2" d="M206.58,38.73c-.45-1.4-.9-2.73-1.34-4L181,34.86l3.19,510.84,47.88-.3L230,202.83s2.66-84.49-23.38-164.1"/><path class="cls-5" d="M181,38.72,180.77,0c-7.2,0-13.62,1.61-25.29,38.87Z"/><path class="cls-6" d="M181,38.73,180.8,0c6.39-.23,13.65,1.45,25.78,38.55Z"/><path class="cls-7" d="M181.72,151.35l0-5.87-45.86.29c-.16,2-.3,3.94-.44,5.87Z"/><path class="cls-8" d="M228.07,151.06c-.16-1.92-.33-3.87-.51-5.87l-45.84.29,0,5.86Z"/><rect class="cls-7" x="134.32" y="225.41" width="47.88" height="7.04" transform="translate(-1.44 1) rotate(-0.36)"/><rect class="cls-8" x="182.23" y="225.11" width="47.89" height="7.04" transform="translate(-1.42 1.29) rotate(-0.36)"/><polygon class="cls-7" points="182.68 305.43 134.79 305.72 134.84 312.76 182.72 312.46 182.68 305.43"/><rect class="cls-8" x="182.73" y="305.28" width="47.89" height="7.04" transform="translate(-1.95 1.31) rotate(-0.36)"/><rect class="cls-7" x="135.32" y="385.74" width="47.89" height="7.04" transform="translate(-2.44 1.01) rotate(-0.36)"/><rect class="cls-8" x="183.24" y="385.44" width="47.89" height="7.04" transform="translate(-2.42 1.3) rotate(-0.36)"/><rect class="cls-7" x="135.82" y="465.91" width="47.89" height="7.04" transform="translate(-2.95 1.02) rotate(-0.36)"/><rect class="cls-8" x="183.73" y="465.61" width="47.89" height="7.04" transform="translate(-2.94 1.31) rotate(-0.36)"/><path class="cls-5" d="M120.27,572.92l63.85-.4L183.54,481s-63.89-6.63-63.67,29.74Z"/><path class="cls-6" d="M248,572.12l-63.84.4L183.54,481s63.8-7.44,64,28.93Z"/><path class="cls-9" d="M171.62,579.64l-34.7.22a9.23,9.23,0,0,0-9.17,9.29l53.16-.33A9.24,9.24,0,0,0,171.62,579.64Z"/><path class="cls-10" d="M240.26,588.41a9.23,9.23,0,0,0-9.29-9.17l-34.7.22a9.23,9.23,0,0,0-9.17,9.29s0,.05,0,.08l53.14-.33S240.26,588.43,240.26,588.41Z"/><rect class="cls-11" x="136.9" y="572.71" width="34.7" height="7.05" transform="translate(-3.58 0.97) rotate(-0.36)"/><rect class="cls-9" x="196.25" y="572.34" width="34.7" height="7.04" transform="translate(-3.55 1.33) rotate(-0.35)"/><path class="cls-12" d="M171.6,575.94a1,1,0,0,1-.94.95l-32.81.21a1,1,0,0,1-1-.94h0a.94.94,0,0,1,.94-1l32.81-.21a1,1,0,0,1,1,.94Z"/><path class="cls-12" d="M230.95,575.57a.94.94,0,0,1-.94.95l-32.81.2a.94.94,0,0,1-1-.94h0a1,1,0,0,1,.94-1l32.81-.2a.94.94,0,0,1,1,.94Z"/><polygon class="cls-13" points="3.99 485.94 119.91 516.74 120.03 534.98 0.12 504.45 0 485.97 3.99 485.94"/><polygon class="cls-2" points="363.14 483.7 247.61 515.94 247.72 534.18 367.24 502.15 367.13 483.67 363.14 483.7"/><rect class="cls-14" x="55.28" y="426.2" width="80.17" height="10.08" transform="translate(-2.68 0.6) rotate(-0.36)"/><rect class="cls-15" x="231.51" y="425.09" width="80.17" height="10.08" transform="translate(-2.69 1.71) rotate(-0.36)"/><path class="cls-15" d="M144.07,125.78s2.62-33.4,6.36-39.41l30.88-.2.25,39.36Z"/><path class="cls-15" d="M219,125.31S216,91.94,212.18,86l-30.87.19.25,39.36Z"/></g></g></g></svg>