<svg xmlns="http://www.w3.org/2000/svg" viewBox="0 0 157.52 591.17"><defs><style>.cls-1{fill:#d5d9de;}.cls-2{fill:#b5b7bd;}.cls-3{fill:#e2e5e8;}.cls-4{fill:#ef3240;}.cls-5{fill:#ff3951;}.cls-6{fill:#c93143;}.cls-7{fill:#4f4d5b;}.cls-8{fill:#b1bcc2;}.cls-9{fill:#85828f;}.cls-10{fill:#828e9a;}.cls-11{fill:#ef3543;}</style></defs><title>Rocket_2</title><g id="Layer_2" data-name="Layer 2"><g id="Layer_1-2" data-name="Layer 1"><polygon class="cls-1" points="116.04 514.95 39.96 514.95 64.62 353.83 95.34 353.83 116.04 514.95"/><rect class="cls-2" x="55.7" y="168.17" width="46" height="188.67"/><rect class="cls-3" x="78.7" y="168.17" width="23" height="188.67"/><rect class="cls-4" x="55.7" y="195.5" width="46" height="62"/><rect class="cls-5" x="78.7" y="195.5" width="23" height="62"/><path class="cls-6" d="M8.63,542h40v49.15H0V555C0,547,8.63,542,8.63,542Z"/><polygon class="cls-7" points="8.75 542.02 48.59 542.02 54.26 514.95 17.13 514.95 8.75 542.02"/><path class="cls-2" d="M78.7,356.84h-23s-4.5,2.83-7.78,11.61C46.1,373.34,17.13,515,17.13,515H51.42S69.88,376.29,71,370.25C73,359.5,78.7,356.84,78.7,356.84Z"/><path class="cls-5" d="M148.88,542h-40v49.15h48.58V555C157.52,547,148.88,542,148.88,542Z"/><polygon class="cls-8" points="148.77 542.02 108.93 542.02 103.26 514.95 140.39 514.95 148.77 542.02"/><path class="cls-3" d="M78.81,356.84h23s4.5,2.83,7.78,11.61c1.83,4.89,30.8,146.5,30.8,146.5H106.1S87.63,376.29,86.5,370.25C84.48,359.5,78.81,356.84,78.81,356.84Z"/><path class="cls-4" d="M55.7,168.17h23V150.81H46.06s0,3.33,0,6.67S55.7,168.17,55.7,168.17Z"/><path class="cls-9" d="M78.7,48.15H58.43S46.06,61.48,46.06,67.65v83.17H78.7Z"/><path class="cls-5" d="M101.67,168.17h-23V150.81h32.64s0,3.33,0,6.67S101.67,168.17,101.67,168.17Z"/><path class="cls-8" d="M78.67,48.15H98.94s12.37,13.34,12.37,19.5v83.17H78.67Z"/><rect class="cls-4" x="46.19" y="92.17" width="65.02" height="45.67"/><rect class="cls-5" x="78.7" y="92.17" width="32.51" height="45.67"/><polygon class="cls-10" points="108.93 542.02 48.59 542.02 51.42 514.95 106.1 514.95 108.93 542.02"/><rect class="cls-11" x="48.58" y="542.02" width="60.35" height="49.15"/><polygon class="cls-7" points="81.02 0 78.67 0 76.63 0 58.51 48.15 98.9 48.15 81.02 0"/></g></g></svg>