<svg xmlns="http://www.w3.org/2000/svg" viewBox="0 0 302.37 592.38"><defs><style>.cls-1{fill:#4c72ab;}.cls-2{fill:#ef3240;}.cls-3{fill:#698ec7;}.cls-4{fill:#ff3951;}.cls-5{fill:#fa819b;}.cls-6{fill:#ccd6db;}.cls-7{fill:#efefef;}.cls-8{fill:#2c3030;}.cls-9{fill:#5d5d5d;}.cls-10{fill:#808699;}.cls-11{fill:#1c1a22;}.cls-12{fill:#b3b7bf;}.cls-13{fill:#babfbb;}.cls-14{fill:#d8deda;}.cls-15{fill:#313030;}.cls-16{fill:#181b28;}.cls-17{fill:#2e3141;}.cls-18{fill:#b6babf;}.cls-19{fill:#cacdd1;}.cls-20{fill:#0150a6;}.cls-21{fill:#1e0e00;}.cls-22{fill:#fff;}</style></defs><title>Rocket_1</title><g id="Layer_2" data-name="Layer 2"><g id="Layer_1-2" data-name="Layer 1"><rect class="cls-1" x="46.99" y="541.12" width="54.21" height="14.45"/><path class="cls-2" d="M110.83,529.68a15.06,15.06,0,0,1-15.06,15.05H39.15A15.06,15.06,0,0,1,24.1,529.68h0a15.06,15.06,0,0,1,15.06-15.06H95.77a15.06,15.06,0,0,1,15.06,15.06Z"/><rect class="cls-3" x="202.38" y="541.12" width="54.21" height="14.45"/><path class="cls-4" d="M266.22,529.68a15.06,15.06,0,0,1-15.06,15.05H194.55a15.06,15.06,0,0,1-15.06-15.05h0a15.06,15.06,0,0,1,15.06-15.06h56.62a15.06,15.06,0,0,1,15.06,15.06Z"/><path class="cls-2" d="M151.4,0c-46.81,5.61-55,87.38-55,104.13v349l55,0Z"/><path class="cls-4" d="M151.41,0c47,5.64,55.22,87.41,55.22,104.17v349H151.41Z"/><rect class="cls-5" x="96.42" y="242.38" width="55.22" height="6.43"/><rect class="cls-5" x="151.41" y="242.38" width="55.22" height="6.43"/><rect class="cls-5" x="96.42" y="127.54" width="55.22" height="6.43"/><rect class="cls-5" x="151.41" y="127.54" width="55.22" height="6.43"/><path class="cls-6" d="M41.23,455.47H66.75V68.16c-2.6.65-7.24,3.75-12.5,16.19-8.09,19.12-15,41.15-16.18,59-5.15,80.91,0,311.35,0,311.35Z"/><path class="cls-7" d="M92.25,455.47l3.16-.78s5.15-230.45,0-311.35c-1.13-17.85-8.09-39.87-16.18-59C74,71.9,69.34,68.8,66.74,68.16V455.47Z"/><path class="cls-8" d="M66.75,336.93V329.4H36.06q0,3.75,0,7.53Z"/><path class="cls-9" d="M97.46,336.93q0-3.77,0-7.53H66.73v7.53Z"/><path class="cls-8" d="M66.75,249.77v-7.52h-31q0,3.74,0,7.52Z"/><path class="cls-9" d="M97.74,249.77q0-3.77,0-7.52h-31v7.52Z"/><path class="cls-8" d="M66.75,159.76v-7.29l-29.42-.11c-.21,2.5-.3,5-.32,7.4Z"/><path class="cls-9" d="M96.46,159.76c0-2.44-.06-4.91-.07-7.32l-29.66,0v7.29Z"/><path class="cls-6" d="M210.13,455.47h25.52V68.16c-2.6.65-7.24,3.75-12.5,16.19-8.09,19.12-15,41.15-16.18,59-5.15,80.91,0,311.35,0,311.35Z"/><path class="cls-7" d="M261.16,455.47l3.16-.78s5.15-230.45,0-311.35c-1.13-17.85-8.09-39.87-16.18-59-5.27-12.44-9.91-15.54-12.51-16.19V455.47Z"/><path class="cls-8" d="M235.65,336.93V329.4H205q0,3.75,0,7.53Z"/><path class="cls-9" d="M266.36,336.93q0-3.77,0-7.53h-30.7v7.53Z"/><path class="cls-8" d="M235.65,249.77v-7.52h-31q0,3.74,0,7.52Z"/><path class="cls-9" d="M266.65,249.77q0-3.77,0-7.52h-31v7.52Z"/><path class="cls-8" d="M235.65,159.76v-7.29l-29.42-.11c-.21,2.5-.31,5-.32,7.4Z"/><path class="cls-9" d="M265.36,159.76c0-2.44-.06-4.91-.07-7.32l-29.66,0v7.29Z"/><path class="cls-10" d="M99.24,322C88.73,391.59,44,428.55,21,447.39s-17.74,50-17.74,50H0V512.6l113.7,29.71v-308C110.42,252.47,99.24,322,99.24,322Z"/><path class="cls-11" d="M84.63,367.15c-13.46,26.27-35.91,54.37-59,73.71C-2.9,464.78,1.27,489.77,2.86,495.94H8.47c-1.53-32.66,22.42-50.72,22.42-50.72,34.21-30.6,51.93-58,61.11-78.06Z"/><rect class="cls-11" x="53.24" y="473.47" width="30.89" height="7.24"/><rect class="cls-11" x="44.69" y="482.89" width="39.43" height="7.25"/><path class="cls-12" d="M203.12,322c10.52,69.56,55.21,106.52,78.21,125.36s17.75,50,17.75,50h3.29v15.21L188.66,542.3v-308C191.95,252.47,203.12,322,203.12,322Z"/><path class="cls-11" d="M276.73,440.87c-23.09-19.35-45.54-47.44-59-73.71h-7.37c9.18,20,26.9,47.46,61.11,78.06,0,0,23.94,18.06,22.42,50.72h5.61C301.1,489.76,305.27,464.78,276.73,440.87Z"/><rect class="cls-11" x="218.24" y="473.47" width="30.89" height="7.25"/><rect class="cls-11" x="218.24" y="482.89" width="39.44" height="7.25"/><path class="cls-13" d="M131.38,126.83c-.34,1-.69,2.08-1,3.18-21,65.7-18.4,135.26-18.4,135.26V547.38h39.43V126.83Z"/><path class="cls-14" d="M172.43,130.14c-.37-1.15-.73-2.25-1.09-3.32H151.39V547.51h39.44V265.4S193.46,195.84,172.43,130.14Z"/><rect class="cls-15" x="107.35" y="564.29" width="43.82" height="14.49"/><rect class="cls-15" x="151.2" y="564.42" width="43.82" height="14.49"/><path class="cls-1" d="M151.37,189.88V155.39c-15.53.25-20.56,6.22-22.78,12.3C126.65,173,125,189.88,125,189.88Z"/><path class="cls-3" d="M177.76,189.88S176,173.95,174.18,169c-2.27-6.21-7.82-13.32-22.78-13.44v34.35Z"/><path class="cls-16" d="M151.37,130V98.12c-5.93,0-11.23,1.26-21,31.88Z"/><path class="cls-17" d="M151.39,130V98.13c5.27-.16,11.23,1.26,21,31.88Z"/><circle class="cls-10" cx="233.63" cy="452.28" r="14.15"/><path class="cls-18" d="M98.59,569.61h52.58V494.25s-52.58-5.79-52.58,24.16Z"/><path class="cls-19" d="M203.78,569.74H151.2V494.38s52.58-5.8,52.58,24.15Z"/><rect class="cls-1" x="109.72" y="583.4" width="33.69" height="8.98"/><path class="cls-2" d="M148.45,576.29a7.6,7.6,0,0,1-7.6,7.6H112.27a7.6,7.6,0,0,1-7.6-7.6h0a7.6,7.6,0,0,1,7.6-7.6h28.58a7.6,7.6,0,0,1,7.6,7.6Z"/><rect class="cls-3" x="158.59" y="583.33" width="33.68" height="8.98"/><path class="cls-4" d="M197.32,576.22a7.6,7.6,0,0,1-7.6,7.6H161.15a7.6,7.6,0,0,1-7.6-7.6h0a7.6,7.6,0,0,1,7.6-7.6h28.58a7.6,7.6,0,0,1,7.6,7.6Z"/><path id="_Path_" data-name="&lt;Path&gt;" class="cls-20" d="M131.15,276.85s0,.09,0,.09,0,0,0,.06c0,.26.38,38.48.38,38.48,32.62-16.56,41.38-21.53,41.21-38.63.84-23.87,3.54-48.22-21.06-48C128.53,229.07,130.93,253.95,131.15,276.85Z"/><polygon id="_Path_2" data-name="&lt;Path&gt;" class="cls-21" points="132.79 434.48 163.66 434.19 130.88 467.56 174.04 467.25 174 462.62 142.18 462.92 175.25 429.23 132.74 429.63 132.79 434.48"/><path id="_Compound_Path_" data-name="&lt;Compound Path&gt;" class="cls-21" d="M131.23,401.56c-.17-12.26,8.28-21,20.49-21.33,12.42-.28,21.6,8.42,21.75,20.63s-8.62,21.2-21.05,21.31C140.19,422.3,131.4,413.74,131.23,401.56Zm4.5,0c.17,9.42,7.45,16.16,17.11,15.86,9.46-.3,16.17-7.2,16-16.48s-7.29-16-16.64-15.89C142.49,385.14,135.55,392.08,135.73,401.53Z"/><g id="_Group_" data-name="&lt;Group&gt;"><polygon id="_Path_3" data-name="&lt;Path&gt;" class="cls-21" points="141.68 326.1 172.92 341.72 172.97 346.93 131.61 326.21 172.57 304.68 172.62 309.89 141.68 326.1"/></g><g id="_Group_2" data-name="&lt;Group&gt;"><polygon id="_Path_4" data-name="&lt;Path&gt;" class="cls-21" points="163 358.83 132.07 375.03 132.12 380.24 173.08 358.75 131.72 337.99 131.77 343.2 163 358.83"/></g><g id="_Group_3" data-name="&lt;Group&gt;"><path id="_Path_5" data-name="&lt;Path&gt;" class="cls-22" d="M155.8,243.76l-12.29.12a6.87,6.87,0,0,1-1,0,1.57,1.57,0,0,1-1.47-1.72,1.52,1.52,0,0,1,1.58-1.61c1.61-.05,13-.13,17.14-.16,1.63,0,2.3.34,2.62,1.39s-.05,2.06-1.36,2.86c-3.22,2-11.94,7.36-13.29,8.23h.93l11.83-.11c1.22,0,1.78.35,2,1.24a1.61,1.61,0,0,1-1.37,2.1l-.37,0c-5.81.06-11.62.12-17.43.16a1.94,1.94,0,0,1-2.12-1.32,2.23,2.23,0,0,1,.84-2.56,13.75,13.75,0,0,1,1.47-1C147.38,249.06,155.82,243.82,155.8,243.76Z"/><path id="_Compound_Path_2" data-name="&lt;Compound Path&gt;" class="cls-22" d="M154.56,271.18l3,0c1.11,0,2.23,0,3.35,0a1.8,1.8,0,1,1,.07,3.6,7.38,7.38,0,0,1-.75,0l-16.49.16c-1.85,0-2.27-.39-2.29-2.2,0-2.27-.1-4.54,0-6.8a6.26,6.26,0,0,1,6.72-6.22,6.37,6.37,0,0,1,6.34,6.47C154.57,267.79,154.55,269.43,154.56,271.18Zm-3.38,0c0-1.8.08-3.54-.08-5.26a2.92,2.92,0,0,0-3.15-2.55,2.85,2.85,0,0,0-3.13,2.55c-.16,1.74,0,3.51,0,5.32Z"/><path id="_Path_6" data-name="&lt;Path&gt;" class="cls-22" d="M157.1,286.42l-14-4.27c-.75-.23-1.49-.51-1.69-1.42-.35-1.6.89-2.61,2.59-2,4.1,1.33,8.18,2.7,12.27,4.06,1.67.56,3.35,1.1,5,1.69a2.09,2.09,0,0,1-.06,4.08c-1.85.71-3.73,1.34-5.6,2l-11,3.91a6.11,6.11,0,0,1-.89.26,1.7,1.7,0,0,1-2.15-1.13,1.75,1.75,0,0,1,1.15-2.24c.69-.28,1.4-.5,2.11-.74Z"/></g></g></g></svg>